<?xml version="1.0" standalone="no"?>
<!DOCTYPE svg PUBLIC "-//W3C//DTD SVG 20010904//EN"
 "http://www.w3.org/TR/2001/REC-SVG-20010904/DTD/svg10.dtd">
<svg version="1.0" xmlns="http://www.w3.org/2000/svg"
 width="930.000000pt" height="930.000000pt" viewBox="0 0 930.000000 930.000000"
 preserveAspectRatio="xMidYMid meet">
<metadata>
Created by potrace 1.14, written by Peter Selinger 2001-2017
</metadata>
<g transform="translate(0.000000,930.000000) scale(0.100000,-0.100000)"
fill="#000000" stroke="none">
<path d="M4405 9294 c-33 -2 -132 -11 -220 -20 -1386 -136 -2640 -894 -3410
-2059 -423 -640 -665 -1317 -751 -2100 -25 -223 -25 -707 0 -930 33 -301 84
-562 163 -835 355 -1229 1226 -2276 2370 -2849 185 -93 238 -117 393 -178 794
-313 1691 -401 2529 -247 1909 349 3397 1837 3745 3745 54 295 70 478 70 829
0 351 -16 532 -70 829 -264 1456 -1207 2701 -2539 3351 -476 232 -976 377
-1525 441 -169 19 -604 33 -755 23z m-1597 -1190 c324 -174 610 -431 804 -724
81 -121 203 -365 247 -494 17 -48 43 -133 56 -188 51 -199 58 -270 60 -633 2
-385 3 -396 80 -550 58 -117 152 -241 297 -391 122 -127 148 -169 148 -240 0
-56 -14 -92 -53 -132 -44 -46 -72 -59 -189 -88 -113 -28 -143 -41 -176 -77
-38 -41 -39 -92 -3 -175 69 -158 27 -222 -194 -292 -109 -34 -185 -67 -185
-80 0 -13 67 -62 158 -115 107 -63 145 -96 167 -141 25 -52 14 -87 -49 -155
-30 -32 -57 -72 -61 -89 -4 -20 2 -60 20 -120 30 -102 28 -141 -9 -225 -45
-100 -133 -172 -245 -201 -78 -20 -215 -22 -581 -10 -244 8 -285 7 -360 -8
-349 -71 -503 -319 -576 -926 -20 -164 -23 -432 -6 -500 6 -24 9 -46 7 -49
-19 -18 -475 425 -617 599 -513 630 -815 1359 -899 2170 -17 161 -17 599 0
760 125 1218 763 2284 1771 2960 91 62 269 170 278 170 3 0 52 -25 110 -56z
m4657 -1005 c76 -38 283 -266 436 -480 326 -456 525 -965 606 -1549 25 -176
25 -662 0 -840 -90 -651 -324 -1203 -722 -1700 -137 -171 -260 -297 -318 -327
-139 -70 -305 -15 -373 123 -21 43 -27 70 -27 122 0 92 25 139 137 260 309
334 522 701 649 1123 133 436 155 944 61 1399 -107 518 -343 968 -722 1376
-100 108 -125 156 -125 244 0 128 66 220 192 267 51 19 148 11 206 -18z m-717
-698 c73 -38 259 -248 376 -424 188 -284 307 -589 368 -943 30 -176 33 -570 5
-739 -75 -445 -242 -822 -514 -1160 -100 -123 -200 -220 -250 -242 -22 -9 -66
-16 -103 -17 -154 -1 -271 129 -257 284 7 75 23 104 121 213 160 178 263 336
350 540 262 614 176 1335 -223 1864 -32 43 -95 117 -139 166 -95 103 -118 155
-109 248 9 102 81 193 177 224 57 19 147 12 198 -14z m-699 -656 c58 -20 98
-53 173 -142 358 -426 450 -981 248 -1496 -85 -217 -273 -476 -391 -538 -67
-36 -177 -34 -241 3 -84 50 -138 142 -138 235 0 56 35 129 97 200 108 124 155
202 201 333 88 251 64 536 -64 767 -36 64 -88 135 -161 216 -43 49 -73 122
-73 177 0 84 63 190 134 227 69 36 147 42 215 18z"/>
</g>
</svg>
